<?xml version="1.0" encoding="utf-8"?>
<!-- Generator: Adobe Illustrator 25.0.0, SVG Export Plug-In . SVG Version: 6.00 Build 0)  -->
<svg version="1.1" xmlns="http://www.w3.org/2000/svg" xmlns:xlink="http://www.w3.org/1999/xlink" x="0px" y="0px"
	 viewBox="0 0 141.73 141.73" style="enable-background:new 0 0 141.73 141.73;" xml:space="preserve">
<style type="text/css">
	.st0{fill:#E6A329;}
	.st1{fill:#F1BF22;}
	.st2{fill:#FFFFFF;}
	.st3{fill:#EBEBEB;}
</style>
<g id="Layer_1">
	<g id="code_x5F_html5">
	</g>
	<g>
		<polygon class="st0" points="113.31,33.95 71.95,33.95 71.95,33.95 30.59,33.95 38.34,118.03 71.95,127.56 71.95,127.56 
			71.95,127.56 71.95,127.56 71.95,127.56 105.54,118.03 		"/>
		<polygon class="st1" points="71.95,40.8 71.95,120.44 71.95,120.44 99.16,112.72 105.79,40.8 		"/>
		<polygon class="st2" points="93.6,51.11 51.74,51.11 48.83,82.6 48.89,82.4 84.45,82.4 83.29,95.72 71.95,98.99 60.43,95.67 
			59.74,87.61 49.29,87.61 50.78,103.71 71.95,109.73 93.11,103.71 96.03,72.11 58.3,72.11 58.78,61.57 84.97,61.57 85.35,67.6 
			95.9,67.6 		"/>
		<g>
			<path class="st3" d="M71.95,51.11H51.74L48.83,82.6l0.06-0.2h23.05V72.11H59.75l0.48-10.54h11.71V51.11z M59.74,87.61H49.29
				l1.49,16.11l21.17,6V98.99l-11.52-3.32L59.74,87.61z"/>
		</g>
		<g>
			<polygon points="63.9,21.54 56.54,21.54 56.54,26.83 63.9,26.83 67.84,26.83 69.17,26.83 69.17,11.13 63.9,11.13 			"/>
			<path d="M87.35,11.21H74.52c0,0,0,2.76,0,5.5c1.71,1.72,2.61,2.54,5.09,5.02c-1.45,0-5.09,0.01-5.09,0.01v5.02h12.83v-5.02
				l-5.12-5.03h5.12V11.21z"/>
		</g>
	</g>
</g>
<g id="Layer_2">
</g>
</svg>
